<svg width="52" height="52" viewBox="0 0 52 52" fill="none" xmlns="http://www.w3.org/2000/svg">
<path d="M34.4494 17.4688C39.1619 17.4688 42.8994 13.7313 42.8994 9.01875C42.8994 4.30625 38.9994 0.8125 34.4494 0.8125H17.5494C12.8369 0.8125 9.09937 4.55 9.09937 9.2625C9.09937 13.975 12.8369 17.7125 17.5494 17.7125C12.8369 17.7125 9.09937 21.45 9.09937 26.1625C9.09937 30.875 12.8369 34.6125 17.5494 34.6125C12.8369 34.6125 9.09937 38.35 9.09937 43.0625C9.09937 47.775 12.9181 51.1875 17.5494 51.1875C22.1806 51.1875 25.9994 47.45 25.9994 42.7375V17.7125H34.4494V17.4688ZM34.4494 17.4688C29.7369 17.4688 25.9994 21.2062 25.9994 25.9187C25.9994 30.6313 29.7369 34.3687 34.4494 34.3687C39.1619 34.3687 42.8994 30.6313 42.8994 25.9187C42.6556 21.2062 38.9994 17.4688 34.4494 17.4688Z" fill="black"/>
</svg>
