<svg width="52" height="52" viewBox="0 0 52 52" fill="none" xmlns="http://www.w3.org/2000/svg">
<g clip-path="url(#clip0_9_21)">
<path d="M0.8125 0.8125V51.1875H51.1875V0.8125H0.8125ZM28.275 40.0562C28.275 45.0125 25.35 47.2875 21.125 47.2875C17.3875 47.2875 15.1937 45.3375 14.0562 42.9L17.9563 40.4625C18.6063 41.8438 19.3375 42.9 21.0437 42.9C22.6687 42.9 23.5625 42.3312 23.5625 39.8937V23.9688H28.275V40.0562ZM39.4875 47.2875C35.1 47.2875 32.2563 45.0938 30.7938 42.4937L34.6938 40.2188C35.75 41.8438 37.1312 43.0625 39.4062 43.0625C41.3563 43.0625 42.575 42.1688 42.575 40.625C42.575 39 41.3563 38.4312 39.1625 37.4562L38.025 36.9688C34.6125 35.5875 32.3375 33.6375 32.3375 29.7375C32.3375 26.1625 34.9375 23.5625 39.2437 23.5625C42.25 23.5625 44.3625 24.6187 45.9062 27.3813L42.25 29.8188C41.4375 28.4375 40.625 27.7875 39.1625 27.7875C37.7812 27.7875 36.8875 28.6813 36.8875 29.8188C36.8875 31.2 37.7812 31.7688 39.7313 32.6625L40.8687 33.15C44.85 34.8563 47.2062 36.5625 47.2062 40.625C47.2875 44.9313 43.9562 47.2875 39.4875 47.2875Z" fill="black"/>
</g>
<defs>
<clipPath id="clip0_9_21">
<rect width="52" height="52" fill="white"/>
</clipPath>
</defs>
</svg>
