<svg width="52" height="52" viewBox="0 0 52 52" fill="none" xmlns="http://www.w3.org/2000/svg">
<path d="M50.5495 12.2882C50.5495 12.2882 50.5193 12.2277 50.4992 12.1773C50.479 12.127 50.4589 12.0766 50.4488 12.0464C50.4186 11.996 50.3883 11.9658 50.348 11.9155C50.3279 11.8752 50.2977 11.8449 50.2574 11.8047C50.2372 11.7845 50.207 11.7643 50.1466 11.714C50.1164 11.6838 50.0862 11.6636 50.0358 11.6334L40.678 6.24436C40.3557 6.06305 39.9225 6.06305 39.6002 6.24436L30.2323 11.6435C30.2323 11.6435 30.1719 11.6838 30.1114 11.7341L30.0207 11.8047C30.0207 11.8047 29.9603 11.8853 29.9099 11.9457L29.8495 12.0363C29.8495 12.0363 29.7992 12.127 29.7689 12.2076L29.7387 12.2882C29.7186 12.3889 29.6984 12.4795 29.6984 12.5702V22.6331L22.5063 26.7731V7.2718C22.5063 7.18114 22.5063 7.08042 22.4761 6.99983C22.466 6.96961 22.456 6.93939 22.4257 6.87896C22.4056 6.82859 22.3854 6.77822 22.3653 6.74801C22.3451 6.69764 22.3149 6.66742 22.2746 6.61706C22.2545 6.58684 22.2242 6.54655 22.1839 6.50626C22.1638 6.48611 22.1336 6.46596 22.0732 6.4156C22.043 6.39546 22.0127 6.36523 21.9724 6.34509L12.6046 0.956036C12.2822 0.764655 11.8592 0.764655 11.5268 0.956036L2.16894 6.33501C2.16894 6.33501 2.08836 6.39546 2.03799 6.44581L1.93726 6.51633C1.93726 6.51633 1.8869 6.58684 1.83653 6.64727L1.77609 6.73793C1.77609 6.73793 1.72573 6.84873 1.70558 6.90918L1.66529 6.99983C1.64515 7.09048 1.625 7.18114 1.625 7.28188V39.3341C1.625 39.5154 1.67537 39.7068 1.77609 39.868C1.86675 40.0392 2.00778 40.1702 2.16894 40.2709L20.8947 51.049C20.8947 51.049 20.9853 51.0893 21.0558 51.1195L21.1465 51.1497C21.2371 51.1699 21.3277 51.19 21.4285 51.19C21.5191 51.19 21.6098 51.1699 21.7005 51.1497L21.7911 51.1195C21.8515 51.0993 21.912 51.0792 21.9624 51.0389L40.688 40.2709C41.0204 40.0694 41.2219 39.7169 41.2219 39.3341V29.2712L50.0358 24.1944C50.207 24.1038 50.3379 23.9627 50.4387 23.8015C50.5294 23.6303 50.5797 23.449 50.5797 23.2577V12.5702C50.5797 12.4795 50.5797 12.3889 50.5495 12.2882ZM40.1441 16.7102L32.952 12.5702L40.1441 8.44025L47.3362 12.5702L40.1441 16.7102ZM12.0707 3.14188L19.2528 7.28188L12.0707 11.4219L4.87857 7.28188L12.0707 3.14188ZM20.3406 9.14534V28.0222L15.969 30.5404L13.1485 32.1622V13.2954L20.3406 9.14534ZM20.3406 48.2285L3.79069 38.6995V9.14534L10.9828 13.2954V34.0357C10.9828 34.0357 10.9929 34.1062 11.003 34.1768C11.003 34.2171 11.013 34.2674 11.0231 34.3177C11.0332 34.358 11.0533 34.3882 11.0735 34.4487C11.0936 34.4991 11.1138 34.5394 11.1339 34.5696C11.1541 34.6099 11.1742 34.6401 11.2245 34.7106L11.3051 34.8012C11.3051 34.8012 11.3555 34.8516 11.426 34.902L20.3406 39.9587V48.2285ZM21.4285 38.085L14.2465 34.0256L30.7863 24.5067L37.9684 28.6466L21.4285 38.085ZM39.0562 38.6995L22.5063 48.2386V39.9587L39.0562 30.5102V38.6995ZM39.0562 26.7731L31.8641 22.6331V14.4437L39.0562 18.5837V26.7731ZM48.414 22.6331L41.2219 26.7731V18.5837L48.414 14.4437V22.6331Z" fill="black"/>
</svg>
