<svg width="52" height="52" viewBox="0 0 52 52" fill="none" xmlns="http://www.w3.org/2000/svg">
<g clip-path="url(#clip0_9_9)">
<mask id="mask0_9_9" style="mask-type:luminance" maskUnits="userSpaceOnUse" x="0" y="0" width="52" height="52">
<path d="M52 0H0V52H52V0Z" fill="white"/>
</mask>
<g mask="url(#mask0_9_9)">
<path d="M30.5247 5.80035C28.3372 3.21891 26.4524 0.578849 26.0697 0.0370885C26.0617 0.0256436 26.0512 0.0162909 26.0388 0.0098319C26.0265 0.00337293 26.0128 -1.19267e-06 25.9989 3.16242e-10C25.985 1.19329e-06 25.9712 0.00337699 25.9589 0.00983808C25.9465 0.0162992 25.936 0.0256531 25.928 0.0370993C25.5454 0.578871 23.6611 3.21892 21.4736 5.80035C2.72444 29.6859 24.4328 45.8012 24.4328 45.8012L24.6088 45.9235C24.7734 48.4168 25.1822 52 25.1822 52H26.816C26.816 52 27.2231 48.4321 27.3884 45.9396L27.5655 45.8012C27.5655 45.8012 49.2737 29.686 30.5247 5.80035ZM25.9992 45.4509C25.9992 45.4509 25.0259 44.6209 24.7632 44.205L24.7608 44.1602L25.9379 18.1556C25.9387 18.1399 25.9454 18.125 25.9568 18.1141C25.9682 18.1032 25.9833 18.0971 25.9991 18.0971C26.0149 18.0971 26.0301 18.1032 26.0414 18.1141C26.0528 18.125 26.0596 18.1399 26.0603 18.1556L27.2374 44.1601L27.2352 44.2048C26.9726 44.6206 25.9992 45.4509 25.9992 45.4509Z" fill="black"/>
</g>
</g>
<defs>
<clipPath id="clip0_9_9">
<rect width="52" height="52" fill="white"/>
</clipPath>
</defs>
</svg>
