<svg width="52" height="52" viewBox="0 0 52 52" fill="none" xmlns="http://www.w3.org/2000/svg">
<g clip-path="url(#clip0_9_31)">
<mask id="mask0_9_31" style="mask-type:luminance" maskUnits="userSpaceOnUse" x="0" y="0" width="52" height="52">
<path d="M52 0H0V52H52V0Z" fill="white"/>
</mask>
<g mask="url(#mask0_9_31)">
<path fill-rule="evenodd" clip-rule="evenodd" d="M47.8989 40.5055C45.0708 40.4267 42.8767 40.7166 41.0378 41.4902C40.5082 41.7028 39.6585 41.7028 39.5887 42.3692C39.8717 42.6489 39.9058 43.1065 40.1539 43.4941C40.578 44.1976 41.3215 45.1453 41.9928 45.6367L44.2559 47.254C45.6351 48.0969 47.1911 48.5892 48.5346 49.4329C49.313 49.9252 50.0906 50.5578 50.869 51.0855C51.2653 51.3668 51.5055 51.8245 52.0009 51.9993V51.893C51.7536 51.5779 51.6822 51.121 51.4357 50.7681L50.3735 49.7495C49.3486 48.3789 48.0749 47.1831 46.6957 46.2C45.5638 45.4265 43.0891 44.3724 42.6294 43.0727L42.5596 42.9939C43.3364 42.9151 44.2559 42.6418 44.9994 42.4307C46.2026 42.1156 47.2981 42.1849 48.5346 41.869L50.2333 41.3766V41.0616C49.5968 40.429 49.1371 39.5853 48.4656 38.9882C46.6624 37.442 44.6808 35.9303 42.6294 34.6651C41.5331 33.9625 40.1182 33.5048 38.9514 32.9084C38.5258 32.6974 37.8195 32.5918 37.5723 32.2405C36.9341 31.4685 36.5814 30.4484 36.1217 29.5338L33.2222 23.4186C32.5856 22.0479 32.1956 20.6772 31.4189 19.4122C27.7759 13.4371 23.8141 9.81752 17.7313 6.26715C16.4235 5.52904 14.8675 5.21158 13.2132 4.82559L10.561 4.6838C9.99424 4.43802 9.42906 3.77002 8.93368 3.45335C6.91796 2.18824 1.71896 -0.553089 0.232729 3.05948C-0.722418 5.34392 1.64761 7.59292 2.45216 8.75323C3.05457 9.5615 3.83137 10.4752 4.25703 11.3891C4.49482 11.9862 4.57409 12.6195 4.82219 13.252C5.38735 14.7984 5.91843 16.5211 6.66114 17.9628C7.05747 18.7008 7.47362 19.4751 7.96902 20.1424C8.25199 20.5363 8.74746 20.7049 8.85284 21.3374C8.35746 22.0409 8.32333 23.094 8.04036 23.974C6.76657 27.9457 7.26197 32.866 9.06531 35.7901C9.63202 36.6684 10.9676 38.6023 12.7796 37.8634C14.3713 37.2308 14.0162 35.2276 14.4759 33.4701C14.5829 33.0487 14.5116 32.7675 14.7232 32.4855V32.5643L16.1738 35.4812C17.27 37.2032 19.1803 38.9961 20.7712 40.1919C21.6193 40.8245 22.2915 41.9147 23.3521 42.3007V42.1943H23.2823C23.0699 41.8793 22.7512 41.7375 22.4682 41.4917C21.8317 40.8592 21.1247 40.0856 20.6293 39.3829C19.1446 37.4151 17.8367 35.2354 16.6692 32.9864C16.1024 31.897 15.6071 30.702 15.1489 29.6126C14.9349 29.1904 14.9349 28.557 14.5822 28.3475C14.0511 29.1194 13.2743 29.789 12.8835 30.7374C12.2113 32.2484 12.1416 34.1114 11.8943 36.0444C11.7516 36.08 11.815 36.0444 11.7516 36.1233C10.6212 35.8428 10.2312 34.6817 9.8072 33.6986C8.74664 31.203 8.56903 27.1966 9.48854 24.3142C9.73586 23.5762 10.798 21.2562 10.3739 20.5536C10.1599 19.8856 9.45449 19.4996 9.06449 18.9718C8.6047 18.3038 8.1109 17.461 7.79226 16.7228C6.94412 14.7535 6.52005 12.5754 5.59978 10.6068C5.17412 9.69304 4.4322 8.7438 3.83058 7.90092C3.15841 6.95169 2.41728 6.2837 1.8862 5.15959C1.70944 4.76572 1.46213 4.14026 1.74511 3.71803C1.81486 3.4368 1.95754 3.32416 2.23893 3.26114C2.69867 2.86727 4.00814 3.3667 4.46787 3.57624C5.77575 4.10402 6.87199 4.59557 7.96823 5.33289C8.46365 5.68423 8.9947 6.35223 9.63121 6.52868H10.3747C11.5066 6.77446 12.7788 6.60745 13.8387 6.92255C15.7133 7.52123 17.4103 8.39881 18.9322 9.34879C23.5645 12.2657 27.3851 16.4132 29.966 21.3697C30.39 22.1779 30.5667 22.916 30.9567 23.7597C31.7003 25.4824 32.6198 27.2391 33.3608 28.9273C34.1044 30.5792 34.8114 32.2673 35.872 33.6379C36.4031 34.3761 38.5242 34.762 39.4786 35.1488C40.1864 35.4639 41.2818 35.7475 41.92 36.1335C43.1216 36.8716 44.3241 37.7153 45.4552 38.5235C46.0203 38.9442 47.7895 39.8232 47.8949 40.5243L47.8989 40.5055ZM11.8333 9.9632C11.3446 9.95889 10.8575 10.018 10.3842 10.1389V10.2177H10.454C10.7369 10.7801 11.2324 11.1669 11.5859 11.6592L12.4 13.3465L12.4697 13.2678C12.9651 12.9165 13.2132 12.354 13.2132 11.5111C13.0008 11.2654 12.966 11.0188 12.7892 10.773C12.5767 10.4217 12.117 10.2452 11.8333 9.96483V9.9632Z" fill="black"/>
</g>
</g>
<defs>
<clipPath id="clip0_9_31">
<rect width="52" height="52" fill="white"/>
</clipPath>
</defs>
</svg>
