<svg width="52" height="52" viewBox="0 0 52 52" fill="none" xmlns="http://www.w3.org/2000/svg">
<g clip-path="url(#clip0_9_15)">
<mask id="mask0_9_15" style="mask-type:luminance" maskUnits="userSpaceOnUse" x="0" y="0" width="52" height="52">
<path d="M52 0H0V52H52V0Z" fill="white"/>
</mask>
<g mask="url(#mask0_9_15)">
<path d="M24.2972 0.0139934C24.1854 0.0241581 23.8295 0.0597344 23.5093 0.085146C16.1236 0.750933 9.20546 4.73549 4.82385 10.8597C2.38397 14.2649 0.823461 18.1274 0.233822 22.2187C0.0254154 23.6469 0 24.0687 0 26.0051C0 27.9415 0.0254154 28.3633 0.233822 29.7915C1.64692 39.5546 8.59552 47.7575 18.0195 50.7968C19.7071 51.3406 21.4862 51.7116 23.5093 51.9352C24.2972 52.0216 27.7028 52.0216 28.4907 51.9352C31.9828 51.549 34.9412 50.685 37.8588 49.1958C38.3061 48.9671 38.3926 48.9062 38.3316 48.8553C38.2909 48.8248 36.3847 46.2684 34.0974 43.1784L29.9394 37.5624L24.7292 29.8524C21.8623 25.6137 19.5038 22.1476 19.4835 22.1476C19.4631 22.1425 19.4428 25.568 19.4326 29.7507C19.4174 37.0745 19.4123 37.3692 19.3208 37.542C19.1887 37.7911 19.087 37.8927 18.8735 38.0045C18.7108 38.0859 18.5686 38.1011 17.801 38.1011H16.9216L16.6878 37.9537C16.5353 37.8571 16.4235 37.7301 16.3472 37.5827L16.2405 37.354L16.2506 27.1638L16.2659 16.9687L16.4235 16.7705C16.5048 16.6637 16.6776 16.5265 16.7996 16.4604C17.008 16.3588 17.0893 16.3486 17.9687 16.3486C19.0057 16.3486 19.1785 16.3893 19.4479 16.684C19.5241 16.7654 22.3453 21.0143 25.7204 26.1321C29.0956 31.2501 33.711 38.2383 35.9781 41.6689L40.0954 47.9049L40.3038 47.7677C42.149 46.5683 44.1009 44.8606 45.6462 43.0818C48.9349 39.3056 51.0546 34.701 51.7662 29.7915C51.9746 28.3633 52 27.9415 52 26.0051C52 24.0687 51.9746 23.6469 51.7662 22.2187C50.3531 12.4555 43.4045 4.25267 33.9805 1.21343C32.3182 0.674698 30.5494 0.303686 28.5669 0.0800638C28.0789 0.0292404 24.7191 -0.0266653 24.2972 0.0139934ZM34.9412 15.7388C35.1852 15.8607 35.3834 16.0945 35.4546 16.3385C35.4952 16.4706 35.5054 19.2964 35.4952 25.6646L35.4799 34.8026L33.8687 32.3326L32.2522 29.8626V23.2199C32.2522 18.9254 32.2725 16.5113 32.303 16.3944C32.3844 16.1098 32.5622 15.8862 32.8062 15.754C33.0146 15.6473 33.0909 15.6371 33.889 15.6371C34.6413 15.6371 34.7734 15.6473 34.9412 15.7388Z" fill="black"/>
</g>
</g>
<defs>
<clipPath id="clip0_9_15">
<rect width="52" height="52" fill="white"/>
</clipPath>
</defs>
</svg>
