<svg width="52" height="52" viewBox="0 0 52 52" fill="none" xmlns="http://www.w3.org/2000/svg">
<path fill-rule="evenodd" clip-rule="evenodd" d="M10.859 19.8716C11.0456 19.9791 11.1595 20.1777 11.1595 20.394L11.1499 28.1087C11.1499 28.2156 11.0922 28.3156 11.0008 28.3685C10.9085 28.4237 10.7928 28.4237 10.7 28.3685L7.742 26.6746C7.55605 26.5641 7.44049 26.3667 7.44049 26.1527V22.5483C7.44049 22.3332 7.326 22.1345 7.13951 22.0275L5.88001 21.3021C5.78904 21.2479 5.68395 21.2213 5.58097 21.2213C5.47636 21.2213 5.37361 21.2481 5.28006 21.3021L4.01993 22.0279C3.83361 22.1349 3.71959 22.3335 3.71959 22.5486V26.1533C3.71959 26.3675 3.60557 26.564 3.41867 26.6752L0.458793 28.3703C0.367102 28.4267 0.251904 28.4267 0.160223 28.3703C0.0661834 28.3174 0.010929 28.2174 0.010929 28.1105L0 20.3946C0 20.1784 0.115664 19.9796 0.30116 19.8716L5.27982 17.0069C5.36527 16.9575 5.45942 16.9316 5.55488 16.928H5.60636C5.70182 16.9316 5.79598 16.9575 5.88001 17.0069L10.859 19.8716ZM34.5785 24.5414C34.6253 24.5148 34.6538 24.4651 34.6538 24.4113L34.6533 22.437C34.6533 22.3832 34.625 22.3335 34.578 22.3065L32.8677 21.3191C32.8206 21.2921 32.7631 21.2921 32.716 21.3191L31.0069 22.3065C30.961 22.3335 30.9329 22.3832 30.9329 22.437V24.4113C30.9329 24.465 30.961 24.5147 31.0081 24.5414L32.7184 25.5271C32.7646 25.5538 32.8221 25.5538 32.8685 25.5271L34.5785 24.5414ZM34.8168 9.7912C34.9088 9.7375 35.0225 9.73611 35.1158 9.78811L38.0786 11.4419C38.2691 11.5485 38.3878 11.7492 38.3878 11.9672V26.2988C38.3878 26.5139 38.2726 26.7114 38.0868 26.8195L33.1063 29.6972C32.9197 29.8041 32.6908 29.8041 32.5047 29.6972L27.5243 26.8207C27.3382 26.7126 27.2234 26.5151 27.2234 26.3V20.5495C27.2234 20.3356 27.3382 20.1369 27.5243 20.0299L32.5047 17.1555C32.6913 17.0481 32.92 17.0481 33.1057 17.1555L34.3529 17.874C34.4181 17.9115 34.4987 17.9115 34.5633 17.874C34.6284 17.8363 34.6684 17.7669 34.6684 17.6916V10.051C34.6684 9.94403 34.725 9.84531 34.8168 9.7912ZM52 21.8653C52 22.0792 51.8862 22.2776 51.7011 22.385L48.7137 24.1202C48.6208 24.1742 48.5056 24.1742 48.4128 24.1213C48.3199 24.0673 48.2623 23.9673 48.2623 23.8604V22.4427C48.2623 22.3358 48.2047 22.2359 48.1119 22.183L46.552 21.2837C46.4592 21.2297 46.3451 21.2297 46.2522 21.2837L44.6935 22.183C44.5995 22.2365 44.5431 22.3358 44.5431 22.4435V24.2467C44.5431 24.3536 44.6006 24.4535 44.6947 24.5064L49.7047 27.3817C49.7987 27.4346 49.8562 27.5357 49.8562 27.6439C49.8562 27.7519 49.7963 27.8519 49.7023 27.9048L46.7095 29.5681C46.525 29.6704 46.3016 29.6693 46.1194 29.5646L41.1718 26.7446C40.9849 26.6377 40.8685 26.4378 40.8685 26.2214V20.4734C40.8685 20.2582 40.9826 20.0608 41.1694 19.9526L46.1488 17.0785C46.3357 16.9704 46.5649 16.9704 46.7517 17.0785L51.7007 19.9514C51.8859 20.0593 52 20.2571 52 20.4716V21.8653ZM25.7017 41.5973C25.5301 41.5973 25.3596 41.5523 25.2091 41.4656L23.6415 40.5375C23.4072 40.4065 23.5215 40.3601 23.5987 40.3336C23.911 40.2242 23.9744 40.1995 24.3076 40.0103C24.3427 39.9902 24.3885 39.9974 24.4243 40.0185L25.6288 40.7332C25.6722 40.7567 25.7339 40.7567 25.7743 40.7332L30.4703 38.0225C30.5138 37.9978 30.542 37.9472 30.542 37.8955V32.4766C30.542 32.4224 30.5138 32.3743 30.4694 32.3473L25.7752 29.639C25.7316 29.6131 25.6741 29.6131 25.6306 29.639L20.9373 32.3473C20.8918 32.3731 20.863 32.4237 20.863 32.4753V37.8944C20.863 37.9461 20.8912 37.9955 20.9359 38.0201L22.2217 38.763C22.92 39.1121 23.3468 38.7008 23.3468 38.287V32.9385C23.3468 32.8621 23.4067 32.8033 23.4831 32.8033H24.0779C24.152 32.8033 24.2131 32.8621 24.2131 32.9385V38.2893C24.2131 39.2204 23.7053 39.7551 22.8225 39.7551C22.5509 39.7551 22.3369 39.7551 21.7398 39.4613L20.5079 38.7513C20.2035 38.5751 20.0154 38.2458 20.0154 37.8944V32.4753C20.0154 32.1228 20.2035 31.7936 20.5079 31.6196L25.2087 28.9078C25.5061 28.7397 25.901 28.7397 26.1961 28.9078L30.8909 31.6208C31.1942 31.7959 31.3835 32.1239 31.3835 32.4766V37.8955C31.3835 38.247 31.1942 38.5751 30.8909 38.7513L26.1961 41.4632C26.0457 41.5501 25.8752 41.5948 25.7012 41.5948L25.7017 41.5973ZM27.1522 37.8632C25.0975 37.8632 24.6667 36.92 24.6667 36.1289C24.6667 36.0536 24.7274 35.9937 24.8026 35.9937H25.4092C25.4763 35.9937 25.5326 36.0424 25.5432 36.1086C25.6349 36.7267 25.9076 37.0384 27.1501 37.0384C28.1399 37.0384 28.5608 36.8148 28.5608 36.29C28.5608 35.9879 28.4407 35.7633 26.9033 35.6129C25.6172 35.4859 24.8227 35.2026 24.8227 34.1742C24.8227 33.2267 25.622 32.6624 26.9609 32.6624C28.4642 32.6624 29.2095 33.1845 29.3036 34.3058C29.3071 34.3445 29.2931 34.3822 29.2671 34.4104C29.2413 34.4374 29.2049 34.4539 29.1673 34.4539H28.5572C28.4936 34.4539 28.4385 34.4092 28.4256 34.3481C28.2786 33.698 27.9235 33.49 26.9585 33.49C25.8783 33.49 25.7524 33.8661 25.7524 34.1483C25.7524 34.4903 25.9006 34.5903 27.3582 34.7831C28.8017 34.9746 29.4869 35.245 29.4869 36.2594C29.4869 37.2821 28.6336 37.8688 27.1455 37.8688L27.1522 37.8632ZM32.8654 32.1217H33.0228C33.1521 32.1217 33.1768 32.0313 33.1768 31.9784C33.1768 31.8396 33.0816 31.8397 33.0287 31.8397H32.8665L32.8654 32.1217ZM32.6738 31.6774H33.0228C33.1428 31.6774 33.3778 31.6774 33.3778 31.9455C33.3778 32.1318 33.2586 32.1709 33.1869 32.1944C33.323 32.2035 33.3349 32.2908 33.3528 32.4146L33.3543 32.425L33.3554 32.4343C33.3649 32.5164 33.38 32.6478 33.4072 32.6931H33.1922L33.1881 32.661C33.1775 32.5766 33.1533 32.3854 33.1533 32.3733C33.1393 32.3157 33.1193 32.2875 33.0475 32.2875H32.87V32.6942H32.6738V31.6774ZM32.2541 32.1829C32.2541 32.6038 32.5938 32.9446 33.0111 32.9446C33.4319 32.9446 33.7716 32.5966 33.7716 32.1829C33.7716 31.7609 33.4272 31.4258 33.0098 31.4258C32.5986 31.4258 32.2529 31.7562 32.2529 32.1818L32.2541 32.1829ZM33.9173 32.1852C33.9173 32.6836 33.5095 33.0904 33.0123 33.0904C32.5185 33.0904 32.1072 32.6883 32.1072 32.1852C32.1072 31.6727 32.528 31.2801 33.0123 31.2801C33.5001 31.2801 33.9162 31.6739 33.9162 32.1852H33.9173ZM46.3774 22.1159C46.4128 22.0951 46.457 22.0951 46.4926 22.1159L47.4484 22.6671C47.484 22.6879 47.506 22.726 47.506 22.7672V23.8709C47.506 23.912 47.484 23.9502 47.4484 23.9708L46.4926 24.5222C46.457 24.543 46.4128 24.543 46.3774 24.5222L45.4225 23.9708C45.3859 23.9502 45.3637 23.912 45.3637 23.8709V22.7672C45.3637 22.726 45.3848 22.6879 45.4213 22.6671L46.3774 22.1159ZM19.6171 17.2389C19.426 17.1275 19.1895 17.1275 19.0008 17.2389L13.8851 20.1901C13.6901 20.3009 13.5769 20.5047 13.5769 20.7249V26.6337C13.5769 26.8539 13.6963 27.0577 13.8913 27.1685L19.0008 30.1197C19.1895 30.2311 19.426 30.2311 19.6171 30.1197L24.7297 27.1685C24.9209 27.0577 25.0379 26.8539 25.0379 26.6337V20.7249C25.0379 20.5047 24.9209 20.3009 24.7297 20.1901L19.6171 17.2389Z" fill="black"/>
</svg>
