<svg width="52" height="52" viewBox="0 0 52 52" fill="none" xmlns="http://www.w3.org/2000/svg">
<path d="M26 14.1377C39.4875 14.1377 49.8062 19.7439 49.8062 26.0814C49.8062 32.4189 39.4875 38.1064 26 38.1064C12.5125 38.1064 2.19375 32.4189 2.19375 26.0814C2.19375 19.7439 12.5125 14.1377 26 14.1377ZM26 12.7564C12.025 12.7564 0.8125 18.6877 0.8125 26.0002C0.8125 33.3127 12.025 39.1627 26 39.1627C39.975 39.1627 51.1875 33.3127 51.1875 26.0002C51.1875 18.6877 39.975 12.7564 26 12.7564ZM17.9563 25.0252C17.3875 28.1939 15.1125 27.8689 12.4313 27.8689L13.5688 22.2627C16.575 22.2627 18.525 21.9377 17.9563 25.0252ZM8.45 33.4752H11.375L12.025 29.9002C15.1938 29.9002 17.3062 30.1439 19.0938 28.4377C21.125 26.4877 21.6938 23.1564 20.2312 21.5314C19.4187 20.6377 18.2812 20.1502 16.575 20.1502H10.9688L8.45 33.4752ZM23.1562 16.6564H26L25.35 20.2314C27.7875 20.2314 30.1437 20.1502 31.2812 21.1252C32.4188 22.2627 31.85 23.5627 30.7125 30.0627H27.7062C28.8437 23.8877 29.0875 23.3189 28.7625 22.8314C28.4375 22.3439 27.1375 22.3439 24.8625 22.3439L23.4 30.0627H20.5562L23.1562 16.6564ZM40.5438 25.0252C39.975 28.1939 37.7 27.8689 35.0187 27.8689L36.1562 22.2627C39.1625 22.2627 41.1125 21.9377 40.5438 25.0252ZM31.0375 33.4752H33.8813L34.5312 30.0627C37.9437 30.0627 39.8125 30.3064 41.6 28.6002C43.6313 26.6502 44.2 23.3189 42.7375 21.6939C41.925 20.8002 40.7875 20.3127 39.0812 20.3127H33.475L31.0375 33.4752Z" fill="black"/>
</svg>
