<svg width="52" height="52" viewBox="0 0 52 52" fill="none" xmlns="http://www.w3.org/2000/svg">
<path d="M50.1313 19.4997C49.2375 16.0872 47.6125 13.4059 44.2 13.4059H39.65V18.7684C39.65 22.9122 36.075 26.4059 32.2563 26.4059H20.15C16.8187 26.4059 14.2188 29.2497 14.2188 32.5809V44.0372C14.2188 47.2059 17.0625 49.1559 20.15 50.2122C23.8875 51.3497 27.5437 51.5934 32.175 50.2122C35.1812 49.3184 38.1063 47.6122 38.1063 44.0372V39.4872H26.1625V38.0247H44.2C47.6125 38.0247 48.9938 35.5872 50.1313 31.9309C51.35 27.9497 51.35 24.2934 50.1313 19.4997ZM32.9062 42.2497C34.125 42.2497 35.1812 43.3059 35.1812 44.5247C35.1812 45.7434 34.125 46.7997 32.9062 46.7997C31.6875 46.8809 30.6313 45.7434 30.6313 44.5247C30.55 43.3059 31.6063 42.2497 32.9062 42.2497ZM19.5813 24.8622H31.6063C34.9375 24.8622 37.5375 22.0997 37.5375 18.6872V7.39343C37.5375 4.22468 34.775 1.78718 31.6063 1.21843C27.625 0.649682 23.2375 0.649682 19.5813 1.21843C14.4625 2.11218 13.65 3.98093 13.65 7.39343V11.9434H25.675V13.4059H9.2625C5.85 13.4059 2.7625 15.5997 1.86875 19.4997C0.73125 24.0497 0.73125 26.8934 1.86875 31.6059C2.7625 35.1809 4.7125 37.6997 8.2875 37.6997H12.1875V32.2559C12.1062 28.2747 15.6 24.8622 19.5813 24.8622ZM18.85 8.85592C17.6313 8.85592 16.575 7.79968 16.575 6.58093C16.575 5.36218 17.6313 4.30593 18.85 4.30593C20.0688 4.30593 21.125 5.36218 21.125 6.58093C21.125 7.79968 20.0688 8.85592 18.85 8.85592Z" fill="black"/>
</svg>
