<svg width="52" height="52" viewBox="0 0 52 52" fill="none" xmlns="http://www.w3.org/2000/svg">
<path d="M41.925 18.3622C41.3562 18.2809 40.8687 18.0372 40.3 17.8747C40.3812 17.5497 40.3813 17.2247 40.5438 16.7372C41.6813 10.8872 40.8687 6.25596 38.2687 4.63096C35.6687 3.16846 31.4438 4.71221 27.2188 8.36843C26.8937 8.69343 26.325 9.01843 26 9.50593C25.7563 9.26218 25.4312 9.01843 25.1875 8.69343C20.7188 4.71221 16.3313 3.08721 13.5688 4.63096C10.9688 6.09346 10.1562 10.5622 11.2937 16.0059C11.375 16.5747 11.5375 17.1434 11.6188 17.6309C11.05 17.7122 10.4 17.9559 9.83125 18.1997C4.55 20.0684 0.8125 23.0747 0.8125 25.9184C0.8125 29.0059 4.79375 32.0934 10.2375 33.8809C10.725 33.9622 11.1313 34.2059 11.6188 34.2059C11.5375 34.7747 11.2937 35.3434 11.2937 35.9934C10.2375 41.3559 11.05 45.6622 13.65 47.1247C16.25 48.7497 20.8 47.1247 25.025 43.2247C25.35 42.8997 25.675 42.6559 26.0812 42.3309C26.4062 42.6559 26.975 43.1434 27.4625 43.4684C31.525 47.1247 35.75 48.5872 38.4312 47.1247C41.0312 45.4997 41.925 40.9497 40.7875 35.2622C40.7062 34.9372 40.7062 34.3684 40.4625 33.8809C40.7875 33.7997 41.0312 33.7997 41.3563 33.5559C47.0438 31.8497 51.1875 28.7622 51.1875 25.6747C51.1063 23.1559 47.2062 20.2309 41.925 18.3622ZM28.6 10.0747C32.2563 6.90596 35.6688 5.76846 37.2938 6.58096C38.9188 7.47471 39.5688 11.3747 38.5125 16.4934C38.4313 16.8184 38.4312 17.0622 38.2687 17.5497C36.075 17.0622 33.9625 16.6559 31.6875 16.4934C30.4688 14.7059 29.0875 12.8372 27.625 11.3747C27.95 10.7247 28.275 10.3997 28.6 10.0747ZM17.3062 31.1184C17.7937 32.0122 18.3625 32.8247 18.9312 33.6372C17.3062 33.5559 15.8438 33.3122 14.3813 32.9872C14.7063 31.6059 15.275 30.1434 16.0063 28.6809C16.3313 29.4122 16.9 30.3872 17.3062 31.1184ZM14.3813 19.4184C15.7625 19.0934 17.225 18.8497 18.85 18.6059C18.2812 19.4184 17.7937 20.2309 17.3875 21.1247C16.9812 22.0184 16.4938 22.7497 16.0063 23.7247C15.275 22.1809 14.8688 20.7997 14.3813 19.4184ZM16.9812 26.1622C17.55 24.7809 18.3625 23.5622 19.175 22.1809C19.9875 20.7997 20.8 19.5809 21.5312 18.2809C22.9937 18.1997 24.4562 18.1997 26 18.1997C27.4625 18.1997 29.0875 18.2809 30.4688 18.2809C31.3625 19.4997 32.0938 20.7997 32.825 22.0184C33.6375 23.2372 34.2875 24.6184 35.0187 25.9997C34.45 27.3809 33.6375 28.5997 32.825 29.9809C32.0125 31.3622 31.2 32.5809 30.4688 33.8809C29.0063 33.9622 27.5437 33.9622 25.9187 33.9622C24.2937 33.9622 22.8312 33.8809 21.45 33.8809C20.5562 32.6622 19.825 31.3622 19.0938 29.9809C18.3625 28.5997 17.7125 27.5434 16.9812 26.1622ZM34.6938 31.1184C35.1813 30.2247 35.5875 29.4122 36.075 28.5184C36.6438 29.8997 37.2125 31.3622 37.7 32.8247C36.2375 33.1497 34.6125 33.3934 32.9875 33.6372C33.6375 32.8247 34.2062 31.9309 34.6938 31.1184ZM36.1562 23.6434C35.6688 22.7497 35.2625 21.9372 34.775 21.0434C34.2875 20.1497 33.7188 19.4184 33.3125 18.6872C34.9375 18.9309 36.4 19.1747 37.7812 19.4997C37.2938 20.8809 36.725 22.2622 36.1562 23.6434ZM26 12.6747C27.0562 13.8122 27.95 14.9497 28.8438 16.1684C26.8937 16.0872 24.9438 16.0872 22.9937 16.1684C24.05 14.8684 25.1063 13.7309 26 12.6747ZM14.625 6.66221C16.25 5.76846 19.9875 6.98721 23.725 10.5622C23.9688 10.8059 24.2125 11.0497 24.5375 11.2122C23.075 12.8372 21.6938 14.6247 20.3125 16.3309C18.1187 16.5747 15.8438 16.8997 13.7312 17.3872C13.65 16.8997 13.4875 16.3309 13.4062 15.9247C12.5125 11.1309 13.0813 7.55596 14.625 6.66221ZM12.35 32.4997C12.025 32.4184 11.5375 32.2559 11.1312 32.1747C8.9375 31.6059 6.6625 30.4684 4.875 29.0872C3.7375 28.2747 3.16875 27.2997 2.925 26.1622C2.925 24.3747 6.09375 22.0997 10.5625 20.4747C11.1313 20.2309 11.7 20.1497 12.2688 19.9059C12.9188 22.0997 13.7312 24.1309 14.625 26.1622C13.8125 28.1934 12.9187 30.2247 12.35 32.4997ZM23.6438 42.0059C22.0188 43.4684 20.15 44.6059 18.0375 45.4184C16.9 45.9872 15.6812 45.9872 14.625 45.4997C13 44.6059 12.4312 41.1934 13.2437 36.4809C13.325 35.9122 13.4875 35.3434 13.5688 34.8559C15.7625 35.3434 18.0375 35.6684 20.15 35.7497C21.3687 37.5372 22.9125 39.4059 24.375 41.0309C24.2938 41.5184 23.9688 41.7622 23.6438 42.0059ZM26.0812 39.7309C25.025 38.5934 24.1313 37.4559 23.1562 36.2372C24.05 36.2372 24.9438 36.3184 26 36.3184C27.0562 36.3184 28.0312 36.3184 28.925 36.2372C28.0312 37.2934 27.1375 38.4309 26.0812 39.7309ZM38.9188 42.5747C38.8375 43.7122 38.2688 44.9309 37.2938 45.6622C35.6688 46.5559 32.4188 45.4184 28.8438 42.2497C28.5187 41.9247 28.0312 41.5997 27.625 41.1122C29.0875 39.4872 30.4688 37.6997 31.6875 35.8309C33.9625 35.7497 36.1562 35.2622 38.2687 34.7747C38.35 35.0997 38.35 35.5872 38.5125 35.9122C39.0813 38.1872 39.0813 40.4622 38.9188 42.5747ZM40.7062 32.0934C40.4625 32.1747 40.1375 32.1747 39.8125 32.3372C39.1625 30.1434 38.1875 28.1122 37.2938 26.0809C38.1875 24.1309 39 22.0184 39.65 19.9059C40.2188 19.9872 40.7062 20.2309 41.1125 20.3934C45.6625 22.0184 48.8312 24.2934 48.8312 26.0809C48.9125 27.9497 45.5812 30.4684 40.7062 32.0934ZM26 30.5497C28.5187 30.5497 30.4688 28.5184 30.4688 26.0809C30.4688 23.6434 28.4375 21.6122 26 21.6122C23.6437 21.6122 21.5312 23.6434 21.5312 26.0809C21.5312 28.5184 23.4813 30.5497 26 30.5497Z" fill="black"/>
</svg>
