<svg width="52" height="52" viewBox="0 0 52 52" fill="none" xmlns="http://www.w3.org/2000/svg">
<path fill-rule="evenodd" clip-rule="evenodd" d="M14.2884 21.125C15.8881 14.6252 19.8886 11.375 26.2884 11.375C35.8884 11.375 37.0883 18.6875 41.8884 19.9062C45.0885 20.719 47.8883 19.5002 50.2884 16.25C48.6886 22.7498 44.6881 26 38.2883 26C28.6883 26 27.4883 18.6875 22.6883 17.4688C19.4881 16.656 16.6883 17.8748 14.2884 21.125ZM2.28833 35.75C3.88807 29.2502 7.88858 26 14.2884 26C23.8883 26 25.0884 33.3125 29.8884 34.5312C33.0886 35.344 35.8884 34.1252 38.2883 30.875C36.6886 37.3748 32.6881 40.625 26.2884 40.625C16.6883 40.625 15.4884 33.3125 10.6884 32.0938C7.48807 31.281 4.68833 32.4998 2.28833 35.75Z" fill="black"/>
</svg>
