<svg width="52" height="52" viewBox="0 0 52 52" fill="none" xmlns="http://www.w3.org/2000/svg">
<g clip-path="url(#clip0_9_25)">
<mask id="mask0_9_25" style="mask-type:luminance" maskUnits="userSpaceOnUse" x="0" y="0" width="52" height="52">
<path d="M52 0H0V52H52V0Z" fill="white"/>
</mask>
<g mask="url(#mask0_9_25)">
<path d="M46.9935 0H5.79352C3.03252 0 1.1524 0 1.1524 0V52C1.1524 52 3.03252 52 5.79352 52H51.9935C51.9935 52 51.9935 49.7261 51.9935 46.9219L52.1524 0C52.1524 0 49.7546 0 46.9935 0ZM30.4935 28.8438H24.0934V47.4297H18.9935V28.8438H12.5935V24.6797H30.4935V28.8438ZM46.9935 44.0883C46.5934 45.0023 45.9035 45.6828 45.0935 46.2211C44.2935 46.7188 43.3935 47.1047 42.2934 47.3383C41.1935 47.5719 40.0934 47.6836 38.8935 47.6836C37.6935 47.6836 36.4935 47.582 35.3935 47.3687C34.2935 47.1555 33.3035 46.8406 32.4935 46.4141V41.534C32.4305 41.4832 32.3655 41.4334 32.3035 41.3806L32.4935 41.3359V41.534C33.3435 42.2195 34.2795 42.7477 35.3035 43.1072C36.3035 43.4931 37.4035 43.6861 38.5035 43.6861C39.2035 43.6861 39.7335 43.6252 40.2035 43.5134C40.6935 43.3916 41.0835 43.2291 41.4035 43.0259C41.7235 42.8228 41.9615 42.5791 42.1136 42.2947C42.2656 42.0103 42.3435 41.7056 42.3435 41.3806C42.3435 40.9134 42.2136 40.5072 41.9636 40.1619C41.7336 39.8166 41.3935 39.4916 40.9635 39.197C40.5636 38.9025 40.0635 38.6181 39.4636 38.3439C38.8636 38.0697 38.2535 37.7853 37.5636 37.5009C35.8636 36.6884 34.5236 35.8759 33.6636 34.7588C32.7935 33.7431 32.3636 32.4228 32.3636 30.8994C32.3636 29.6806 32.5936 28.7056 33.0635 27.8525C33.5635 26.9384 34.1536 26.2681 34.9636 25.7197C35.7635 25.1611 36.6636 24.7548 37.7636 24.5009C38.8636 24.247 39.9635 24.115 41.1636 24.115C42.3636 24.115 43.3636 24.1861 44.2636 24.3283C45.1635 24.4705 46.0036 24.6939 46.7636 24.9884V29.7619C46.4136 29.4978 46.0036 29.2642 45.5636 29.0611C45.0936 28.858 44.6335 28.6955 44.1636 28.5634C43.6935 28.4314 43.2236 28.3328 42.7636 28.2689C42.3236 28.2049 41.8835 28.1734 41.4636 28.1734C40.8535 28.1734 40.3335 28.2242 39.8636 28.3359C39.3836 28.4477 38.9836 28.6 38.6635 28.8031C38.3436 29.0063 38.0945 29.2398 37.9136 29.5242C37.7325 29.8086 37.6435 30.1234 37.6435 30.4688C37.6435 30.8445 37.7434 31.1797 37.9435 31.4844C38.1434 31.7789 38.4235 32.0633 38.7934 32.3375C39.1235 32.6016 39.5734 32.8656 40.0934 33.1297C40.6935 33.3937 41.2335 33.6578 41.8935 33.932C42.7935 34.318 43.5934 34.7445 44.2935 35.1508C44.9935 35.557 45.5835 36.0344 46.0935 36.5727C46.6335 37.0805 47.0235 37.6898 47.2935 38.4008C47.5635 39.1117 47.7035 39.9141 47.7035 40.8383C47.7035 42.1586 47.3935 43.1742 46.9935 44.0883Z" fill="black"/>
</g>
</g>
<defs>
<clipPath id="clip0_9_25">
<rect width="52" height="52" fill="white"/>
</clipPath>
</defs>
</svg>
