<svg width="52" height="52" viewBox="0 0 52 52" fill="none" xmlns="http://www.w3.org/2000/svg">
<g clip-path="url(#clip0_9_3)">
<path d="M26 0.8125C12.025 0.8125 0.8125 12.1062 0.8125 26C0.8125 39.8937 12.025 51.1875 26 51.1875C39.975 51.1875 51.1875 39.8125 51.1875 26C51.1875 12.1875 39.8125 0.8125 26 0.8125ZM48.3438 26C48.3438 34.45 43.6312 41.7625 36.8062 45.5L43.3062 28.7625C43.6312 27.8688 45.9062 22.3438 46.7188 17.6313C47.775 20.3125 48.3438 23.1562 48.3438 26ZM30.7938 15.0312H28.0312H19.3375C18.85 15.0312 18.525 15.3562 18.525 15.8438C18.525 16.3313 18.85 16.6562 19.3375 16.6562H20.9625L23.8062 23.9688L20.3938 32.7437L14.2188 16.575H16.1687C16.6562 16.575 16.9812 16.25 16.9812 15.7625C16.9812 15.275 16.6562 14.95 16.1687 14.95H12.8375L7.475 14.8687C11.1312 8.45 18.2 4.225 26 4.225C31.6875 4.225 36.9688 6.5 40.8687 10.1562C38.8375 10.4812 37.2125 12.1062 36.725 14.0562C36.2375 16.3312 37.05 18.2 37.9438 19.9062C38.8375 21.775 39.8125 23.4812 39.0812 25.5125L36.075 33.3125L29.6562 16.575H30.875C31.3625 16.575 31.6875 16.25 31.6875 15.7625C31.6875 15.3562 31.1188 15.0312 30.7938 15.0312ZM3.65625 26C3.65625 23.1562 4.225 20.3937 5.28125 17.875L16.25 46.0688C8.69375 42.4938 3.65625 34.8563 3.65625 26ZM26.2437 30.7938L32.7437 47.2875C30.55 47.9375 28.3563 48.3438 26 48.3438C23.8062 48.3438 21.775 48.1 19.825 47.45L26.2437 30.7938Z" fill="black"/>
</g>
<defs>
<clipPath id="clip0_9_3">
<rect width="52" height="52" fill="white"/>
</clipPath>
</defs>
</svg>
